<?xml version="1.0" standalone="no"?>
<!DOCTYPE svg PUBLIC "-//W3C//DTD SVG 20010904//EN"
 "http://www.w3.org/TR/2001/REC-SVG-20010904/DTD/svg10.dtd">
<svg version="1.0" xmlns="http://www.w3.org/2000/svg"
 width="512.000000pt" height="512.000000pt" viewBox="0 0 512.000000 512.000000"
 preserveAspectRatio="xMidYMid meet">
<metadata>
Created by potrace 1.11, written by Peter Selinger 2001-2013
</metadata>
<g transform="translate(0.000000,512.000000) scale(0.100000,-0.100000)"
fill="#000000" stroke="none">
<path d="M1750 4407 c-75 -18 -179 -68 -253 -121 -56 -40 -127 -105 -116 -107
2 0 69 -1 149 -3 161 -4 247 -24 385 -91 234 -113 461 -371 579 -659 104 -254
150 -489 144 -741 l-3 -140 -70 -7 c-139 -15 -321 -40 -350 -48 -16 -5 -68
-18 -115 -30 -148 -39 -399 -157 -414 -195 -7 -19 -10 -20 70 11 227 87 558
154 759 154 l112 0 -17 -97 c-19 -103 -56 -257 -69 -283 -5 -8 -11 -28 -15
-45 -6 -26 -3 -24 24 17 16 27 30 50 30 54 0 3 9 25 20 50 47 104 59 134 84
217 15 48 33 87 39 88 7 0 70 0 141 -1 134 -2 265 -18 501 -63 81 -16 278 -78
327 -103 80 -41 44 9 -41 58 -150 86 -282 132 -506 178 -66 14 -305 40 -361
40 -51 0 -50 -4 -30 120 33 195 29 543 -9 740 -17 89 -60 261 -74 295 -5 11
-21 52 -37 90 -120 301 -335 536 -553 606 -82 27 -251 34 -331 16z m970 -1894
c-1 -48 -12 -63 -46 -63 -33 0 -34 1 -34 40 l0 40 40 0 c31 0 40 -4 40 -17z"/>
<path d="M3155 4254 c-87 -19 -169 -47 -220 -76 -11 -7 -33 -18 -49 -26 -28
-15 -166 -149 -192 -187 -12 -18 -10 -27 13 -75 35 -74 97 -257 118 -353 9
-42 20 -77 24 -77 3 0 13 19 22 43 38 98 44 112 50 117 4 3 16 24 27 47 55
108 205 259 337 339 83 50 215 112 293 136 53 16 62 22 51 32 -19 18 -89 42
-189 66 -79 18 -227 26 -285 14z"/>
<path d="M530 2019 c-153 -18 -249 -83 -308 -209 -33 -69 -36 -82 -36 -170 -1
-193 77 -310 249 -375 39 -15 77 -19 180 -20 174 0 230 20 327 118 38 37 68
76 68 86 0 11 -15 25 -41 36 -40 19 -41 18 -52 0 -24 -44 -91 -104 -140 -126
-44 -20 -68 -24 -162 -24 -94 0 -117 4 -160 23 -111 51 -169 145 -167 272 3
186 104 293 288 307 136 11 249 -31 310 -113 15 -22 31 -43 34 -47 8 -9 80 23
80 35 0 32 -71 114 -132 151 -81 50 -208 71 -338 56z"/>
<path d="M4098 1994 c-47 -30 -69 -72 -75 -145 l-6 -58 -60 -3 c-56 -3 -62 -5
-67 -28 -10 -39 6 -50 71 -50 l59 0 2 -222 3 -223 43 -3 42 -3 0 225 0 225
108 3 107 3 0 35 0 35 -107 3 -108 3 1 37 c2 61 13 85 49 105 32 18 99 20 175
6 16 -3 21 2 23 24 6 50 -10 57 -122 56 -90 0 -105 -3 -138 -25z"/>
<path d="M2930 1630 l0 -370 343 2 342 3 0 35 c0 31 -3 35 -35 42 -19 4 -150
7 -290 7 l-255 0 -3 325 -2 326 -50 0 -50 0 0 -370z"/>
<path d="M3705 1989 c-4 -6 -4 -26 -1 -45 7 -33 9 -34 51 -34 l45 0 0 45 0 45
-44 0 c-25 0 -48 -5 -51 -11z"/>
<path d="M1315 1793 c-16 -8 -49 -34 -72 -56 l-43 -41 0 52 0 52 -45 0 -45 0
2 -272 c3 -255 4 -273 21 -276 10 -2 29 -1 43 2 l24 6 0 162 c0 160 0 161 27
197 15 20 39 46 53 58 36 32 114 56 156 49 l34 -7 0 46 0 45 -62 0 c-37 -1
-75 -7 -93 -17z"/>
<path d="M1675 1801 c-41 -13 -101 -50 -126 -78 -70 -74 -90 -179 -56 -293 21
-72 62 -119 132 -154 55 -27 63 -28 179 -24 98 3 127 7 151 22 85 55 131 129
142 225 12 124 -42 227 -149 280 -56 28 -69 31 -157 30 -53 -1 -105 -4 -116
-8z m228 -92 c22 -12 50 -39 68 -66 50 -81 38 -206 -27 -266 -63 -58 -169 -72
-257 -33 -60 26 -92 64 -113 132 -30 101 35 216 143 251 48 16 136 7 186 -18z"/>
<path d="M2395 1803 c-11 -3 -43 -20 -72 -39 l-52 -33 -3 32 c-3 31 -5 32 -48
32 l-45 0 0 -360 0 -360 45 0 45 0 5 122 5 122 50 -32 c48 -31 55 -32 166 -35
130 -4 170 8 237 72 61 57 77 99 77 206 0 111 -20 158 -89 214 -72 59 -95 66
-203 65 -54 -1 -107 -4 -118 -6z m173 -78 c104 -31 160 -114 149 -221 -8 -78
-41 -125 -111 -158 -94 -45 -212 -27 -298 45 l-38 30 0 103 c0 94 2 104 23
123 50 45 148 89 203 92 11 1 44 -6 72 -14z"/>
<path d="M4520 1789 c-103 -48 -162 -137 -164 -249 -1 -89 24 -156 77 -207 68
-66 118 -83 241 -83 98 0 108 2 167 33 95 49 121 99 66 124 -18 9 -29 4 -64
-27 -111 -97 -298 -76 -372 43 -11 19 -22 45 -23 58 l-3 24 260 5 260 5 -2 40
c-7 107 -87 210 -186 240 -75 22 -201 19 -257 -6z m205 -60 c54 -15 101 -52
125 -100 l20 -39 -210 0 -211 0 7 23 c30 97 149 149 269 116z"/>
<path d="M3717 1794 c-4 -4 -7 -126 -7 -271 l0 -263 45 0 45 0 -2 268 -3 267
-35 3 c-20 2 -39 0 -43 -4z"/>
<path d="M1711 901 c-8 -5 -15 -34 -18 -73 -6 -76 2 -86 73 -94 72 -9 118 6
122 38 4 32 -33 47 -41 17 -4 -16 -15 -19 -56 -19 l-51 0 0 50 0 50 51 0 c37
0 55 -5 64 -17 7 -9 17 -13 23 -9 15 9 15 39 0 54 -14 14 -146 16 -167 3z"/>
<path d="M2074 902 c-6 -4 -21 -25 -33 -47 -12 -22 -30 -56 -41 -75 -25 -44
-11 -64 23 -32 29 27 117 31 137 7 13 -15 50 -21 50 -8 0 4 -21 43 -47 85 -44
74 -62 88 -89 70z m46 -84 c0 -4 -14 -8 -31 -8 -30 0 -31 5 -5 38 8 11 12 11
23 -4 7 -10 13 -21 13 -26z"/>
<path d="M2310 824 c0 -76 2 -85 18 -82 10 2 16 11 15 23 -7 56 20 83 48 48
24 -28 91 -73 111 -73 17 0 19 7 16 82 -3 70 -6 83 -20 86 -15 3 -18 -4 -18
-47 0 -28 -4 -51 -10 -51 -5 0 -24 13 -42 28 -47 40 -94 72 -107 72 -7 0 -11
-30 -11 -86z"/>
<path d="M2709 893 c-19 -22 -89 -139 -89 -147 0 -12 38 -5 50 9 8 10 31 15
66 15 43 0 56 -4 66 -20 11 -17 58 -30 58 -16 0 2 -23 43 -51 90 -52 89 -72
103 -100 69z m51 -75 c0 -4 -11 -8 -25 -8 -29 0 -30 3 -12 30 11 19 13 19 25
3 6 -9 12 -20 12 -25z"/>
<path d="M2954 897 c-3 -8 -4 -47 -2 -88 l3 -74 76 1 c105 0 129 16 129 84 0
46 -3 52 -32 70 -40 24 -165 29 -174 7z m154 -39 c36 -36 -5 -88 -69 -88 l-37
0 -4 50 -3 50 51 0 c27 0 55 -5 62 -12z"/>
<path d="M3300 833 c-28 -43 -50 -81 -50 -85 0 -14 37 -8 50 7 8 10 31 15 66
15 43 0 55 -4 64 -20 11 -21 35 -27 45 -10 3 5 -15 45 -41 90 -32 56 -52 80
-66 80 -12 0 -35 -25 -68 -77z m90 -15 c0 -4 -11 -8 -25 -8 -28 0 -30 3 -14
32 11 21 12 21 25 3 8 -10 14 -22 14 -27z"/>
</g>
</svg>
